<?xml version="1.0" encoding="utf-8"?><svg width="272" height="94" viewBox="0 0 272 94" xmlns="http://www.w3.org/2000/svg" xmlns:xlink="http://www.w3.org/1999/xlink"><view id="logo" viewBox="0 61 33 33"/><svg width="33" height="33" fill="none" viewBox="0 0 33 33" y="61" xmlns="http://www.w3.org/2000/svg"><path fill-rule="evenodd" clip-rule="evenodd" d="M16.5 33C25.613 33 33 25.613 33 16.5c0-1.914-.326-3.751-.925-5.46L11.04 32.075c1.709.6 3.546.925 5.46.925zM3.167 26.222l8.096-8.096-9.348-9.348A16.428 16.428 0 000 16.5c0 3.635 1.175 6.995 3.167 9.722zm5.61-24.307l9.349 9.348 8.096-8.096A16.425 16.425 0 0016.5 0c-2.79 0-5.418.692-7.722 1.915z" fill="#FDBF5A"/><path d="M5.439 5.48L7.48 7.522M9.806 26.448L7.765 28.49M13.446 22.566l-2.042 2.042M17.086 18.684l-2.042 2.041M24.365 10.92l-2.041 2.04M28.005 7.037l-2.042 2.041M9.22 9.22l2.042 2.042M13.346 13.346l2.041 2.041M20.726 14.802l-2.042 2.041" stroke="#FDBF5A" stroke-width="2"/></svg><view id="logo-main" viewBox="0 0 272 61"/><svg width="272" height="61" fill="none" viewBox="0 0 272 61" xmlns="http://www.w3.org/2000/svg"><path d="M92.646 18.16l-1.8 6.012h-8.712l1.656-5.94 8.856-.072zm6.768 18.684l-5.04 6.12H76.878l4.644-16.416h8.748l-2.88 10.26 12.024.036zm27.669-12.636h-23.724c.48-1.632 1.296-3.012 2.448-4.14 1.416-1.368 2.88-2.052 4.392-2.052h12.24c3.096 0 4.644 1.644 4.644 4.932v1.26zm-.504 2.304l-.144.576c-.384 1.248-1.044 3.528-1.98 6.84-.6 2.088-1.524 3.84-2.772 5.256-2.256 2.544-5.28 3.816-9.072 3.816h-4.284c-2.304 0-4.128-.432-5.472-1.296-1.656-1.032-2.484-2.628-2.484-4.788 0-1.152.18-2.376.54-3.672l1.8-6.66h8.388l-2.484 8.748c-.096.408-.144.72-.144.936 0 .48.216.78.648.9h5.22c.648-.168 1.128-.78 1.44-1.836l2.592-8.784 8.208-.036zm25.936-8.352l-1.728 6.048h-23.364l3.852-6.048h21.24zm-2.232 8.388l-1.98 6.588h-11.556l-2.7 9.828h-9.468l4.572-16.416h21.132zm28.177-8.388l-1.656 5.976h-23.976l3.816-5.976h21.816zm-9.324 8.388l-4.356 16.416h-8.244L161 26.548h8.136z" fill="#fff"/><path d="M204.792 18.16l-1.656 5.976H179.16l3.816-5.976h21.816zm-9.324 8.388l-4.356 16.416h-8.244l4.464-16.416h8.136zm31.516-2.34h-15.552l5.184-6.048h9.072l1.296 6.048zm4.032 18.756h-9.036l-2.448-9.792h-5.112l-7.236 9.792h-10.548l12.888-16.452h17.964l3.528 16.452zm30.405-24.768l-5.796 5.976-17.424-.036-1.44-5.868h9.036l.684 2.808 2.664-2.844 12.276-.036zm-8.028 8.352l-4.356 4.788L251.485 43l-9.36-.036-.684-3.024-2.7 3.06h-12.205l12.637-13.968-.504-2.412 14.724-.072zm17.721-8.388l-1.656 6.048h-8.676l1.728-6.048h8.604zm-2.196 8.388l-4.5 16.416h-8.748l4.572-16.416h8.676z" fill="#FDBF5A"/><path fill-rule="evenodd" clip-rule="evenodd" d="M30.5 61C47.345 61 61 47.345 61 30.5c0-3.537-.602-6.934-1.71-10.093L20.407 59.29A30.453 30.453 0 0030.5 61zM5.854 48.47l14.965-14.965-17.28-17.28A30.367 30.367 0 000 30.5c0 6.719 2.173 12.93 5.854 17.97zM16.226 3.54l17.28 17.279L48.47 5.854A30.363 30.363 0 0030.5 0a30.367 30.367 0 00-14.274 3.54z" fill="#FDBF5A"/><path d="M10.053 10.13l3.774 3.774M18.127 48.89l-3.774 3.774M24.855 41.713l-3.774 3.774M31.583 34.537l-3.774 3.774M45.039 20.184l-3.774 3.774M51.767 13.007l-3.774 3.774M17.044 17.044l3.774 3.774M24.67 24.67l3.773 3.773M38.31 27.36l-3.773 3.774" stroke="#FDBF5A" stroke-width="4"/></svg></svg>